<svg id="Capa_1" enable-background="new 0 0 512 512" height="512" viewBox="0 0 512 512" width="512" xmlns="http://www.w3.org/2000/svg"><g><path d="m451 7.5h-30v497h30c16.569 0 30-13.431 30-30v-437c0-16.569-13.431-30-30-30z" fill="#a0a2a6"/><path d="m451 474.5v-437c0-16.569-13.431-30-30-30h-360c-16.569 0-30 13.431-30 30v437c0 16.569 13.431 30 30 30h360c16.569 0 30-13.431 30-30z" fill="#babbbd"/><path d="m209.3 37.5h-30v63.4h30c17.507 0 31.7-14.192 31.7-31.7 0-17.507-14.193-31.7-31.7-31.7z" fill="#f22433"/><path d="m211 69.2c0-17.507-14.193-31.7-31.7-31.7h-28.3l-30 31.7 30 31.7h28.3c17.507 0 31.7-14.192 31.7-31.7z" fill="#ff4c4e"/><path d="m92.7 37.5c-17.507 0-31.7 14.193-31.7 31.7 0 17.508 14.193 31.7 31.7 31.7h58.3v-63.4z" fill="#dbfffc"/><path d="m419.3 37.5h-30v63.4h30c17.507 0 31.7-14.192 31.7-31.7 0-17.507-14.193-31.7-31.7-31.7z" fill="#f22433"/><path d="m421 69.2c0-17.507-14.193-31.7-31.7-31.7h-28.3l-30 31.7 30 31.7h28.3c17.507 0 31.7-14.193 31.7-31.7z" fill="#ff4c4e"/><path d="m302.7 37.5c-17.507 0-31.7 14.193-31.7 31.7 0 17.508 14.193 31.7 31.7 31.7h58.3v-63.4z" fill="#dbfffc"/><path d="m209.3 130.9h-30v63.4h30c17.507 0 31.7-14.192 31.7-31.7 0-17.507-14.193-31.7-31.7-31.7z" fill="#f22433"/><path d="m211 162.6c0-17.507-14.193-31.7-31.7-31.7h-28.3l-30 31.7 30 31.7h28.3c17.507 0 31.7-14.192 31.7-31.7z" fill="#ff4c4e"/><path d="m92.7 130.9c-17.507 0-31.7 14.193-31.7 31.7 0 17.508 14.193 31.7 31.7 31.7h58.3v-63.4z" fill="#dbfffc"/><path d="m419.3 130.9h-30v63.4h30c17.507 0 31.7-14.192 31.7-31.7 0-17.507-14.193-31.7-31.7-31.7z" fill="#f22433"/><path d="m421 162.6c0-17.507-14.193-31.7-31.7-31.7h-28.3l-30 31.7 30 31.7h28.3c17.507 0 31.7-14.193 31.7-31.7z" fill="#ff4c4e"/><path d="m302.7 130.9c-17.507 0-31.7 14.193-31.7 31.7 0 17.508 14.193 31.7 31.7 31.7h58.3v-63.4z" fill="#dbfffc"/><path d="m209.3 224.3h-30v63.4h30c17.507 0 31.7-14.192 31.7-31.7 0-17.507-14.193-31.7-31.7-31.7z" fill="#f22433"/><path d="m211 256c0-17.507-14.193-31.7-31.7-31.7h-28.3l-30 31.7 30 31.7h28.3c17.507 0 31.7-14.192 31.7-31.7z" fill="#ff4c4e"/><path d="m92.7 224.3c-17.507 0-31.7 14.193-31.7 31.7 0 17.508 14.193 31.7 31.7 31.7h58.3v-63.4z" fill="#dbfffc"/><path d="m419.3 224.3h-30v63.4h30c17.507 0 31.7-14.192 31.7-31.7 0-17.507-14.193-31.7-31.7-31.7z" fill="#f22433"/><path d="m421 256c0-17.507-14.193-31.7-31.7-31.7h-28.3l-30 31.7 30 31.7h28.3c17.507 0 31.7-14.193 31.7-31.7z" fill="#ff4c4e"/><path d="m302.7 224.3c-17.507 0-31.7 14.193-31.7 31.7 0 17.508 14.193 31.7 31.7 31.7h58.3v-63.4z" fill="#dbfffc"/><path d="m209.3 317.7h-30v63.4h30c17.507 0 31.7-14.192 31.7-31.7 0-17.507-14.193-31.7-31.7-31.7z" fill="#f22433"/><path d="m211 349.4c0-17.507-14.193-31.7-31.7-31.7h-28.3l-30 31.7 30 31.7h28.3c17.507 0 31.7-14.192 31.7-31.7z" fill="#ff4c4e"/><path d="m92.7 317.7c-17.507 0-31.7 14.193-31.7 31.7 0 17.508 14.193 31.7 31.7 31.7h58.3v-63.4z" fill="#dbfffc"/><path d="m419.3 317.7h-30v63.4h30c17.507 0 31.7-14.192 31.7-31.7 0-17.507-14.193-31.7-31.7-31.7z" fill="#f22433"/><path d="m421 349.4c0-17.507-14.193-31.7-31.7-31.7h-28.3l-30 31.7 30 31.7h28.3c17.507 0 31.7-14.193 31.7-31.7z" fill="#ff4c4e"/><path d="m302.7 317.7c-17.507 0-31.7 14.193-31.7 31.7 0 17.508 14.193 31.7 31.7 31.7h58.3v-63.4z" fill="#dbfffc"/><path d="m209.3 411.1h-30v63.4h30c17.507 0 31.7-14.192 31.7-31.7 0-17.507-14.193-31.7-31.7-31.7z" fill="#f22433"/><path d="m211 442.8c0-17.507-14.193-31.7-31.7-31.7h-28.3l-30 31.7 30 31.7h28.3c17.507 0 31.7-14.192 31.7-31.7z" fill="#ff4c4e"/><path d="m92.7 411.1c-17.507 0-31.7 14.193-31.7 31.7 0 17.508 14.193 31.7 31.7 31.7h58.3v-63.4z" fill="#dbfffc"/><path d="m419.3 411.1h-30v63.4h30c17.507 0 31.7-14.192 31.7-31.7 0-17.507-14.193-31.7-31.7-31.7z" fill="#f22433"/><path d="m421 442.8c0-17.507-14.193-31.7-31.7-31.7h-28.3l-30 31.7 30 31.7h28.3c17.507 0 31.7-14.193 31.7-31.7z" fill="#ff4c4e"/><path d="m302.7 411.1c-17.507 0-31.7 14.193-31.7 31.7 0 17.508 14.193 31.7 31.7 31.7h58.3v-63.4z" fill="#dbfffc"/><path d="m451 0h-390c-20.678 0-37.5 16.822-37.5 37.5v203.5c0 4.143 3.358 7.5 7.5 7.5s7.5-3.357 7.5-7.5v-203.5c0-12.406 10.093-22.5 22.5-22.5h390c12.406 0 22.5 10.094 22.5 22.5v437c0 12.406-10.094 22.5-22.5 22.5h-390c-12.407 0-22.5-10.094-22.5-22.5v-203.5c0-4.143-3.358-7.5-7.5-7.5s-7.5 3.357-7.5 7.5v203.5c0 20.678 16.822 37.5 37.5 37.5h390c20.678 0 37.5-16.822 37.5-37.5v-437c0-20.678-16.822-37.5-37.5-37.5z"/><path d="m92.7 108.4h116.6c21.615 0 39.2-17.585 39.2-39.2s-17.585-39.2-39.2-39.2h-116.6c-21.615 0-39.2 17.585-39.2 39.2s17.585 39.2 39.2 39.2zm140.8-39.2c0 13.344-10.856 24.2-24.2 24.2h-50.8v-48.4h50.8c13.344 0 24.2 10.856 24.2 24.2zm-140.8-24.2h50.8v48.4h-50.8c-13.344 0-24.2-10.856-24.2-24.2s10.856-24.2 24.2-24.2z"/><path d="m92.7 201.8h116.6c21.615 0 39.2-17.585 39.2-39.2 0-21.614-17.585-39.199-39.2-39.199h-116.6c-21.615 0-39.2 17.585-39.2 39.199 0 21.615 17.585 39.2 39.2 39.2zm140.8-39.2c0 13.344-10.856 24.2-24.2 24.2h-50.8v-48.4h50.8c13.344 0 24.2 10.856 24.2 24.2zm-140.8-24.2h50.8v48.4h-50.8c-13.344 0-24.2-10.856-24.2-24.2s10.856-24.2 24.2-24.2z"/><path d="m92.7 295.2h116.6c21.615 0 39.2-17.585 39.2-39.2s-17.585-39.2-39.2-39.2h-116.6c-21.615 0-39.2 17.585-39.2 39.2s17.585 39.2 39.2 39.2zm140.8-39.2c0 13.344-10.856 24.2-24.2 24.2h-50.8v-48.4h50.8c13.344 0 24.2 10.856 24.2 24.2zm-140.8-24.2h50.8v48.4h-50.8c-13.344 0-24.2-10.856-24.2-24.2s10.856-24.2 24.2-24.2z"/><path d="m92.7 388.6h116.6c21.615 0 39.2-17.585 39.2-39.199 0-21.615-17.585-39.2-39.2-39.2h-116.6c-21.615 0-39.2 17.585-39.2 39.2 0 21.614 17.585 39.199 39.2 39.199zm140.8-39.2c0 13.344-10.856 24.199-24.2 24.199h-50.8v-48.399h50.8c13.344 0 24.2 10.857 24.2 24.2zm-140.8-24.2h50.8v48.4h-50.8c-13.344 0-24.2-10.855-24.2-24.199s10.856-24.201 24.2-24.201z"/><path d="m92.7 482h116.6c21.615 0 39.2-17.585 39.2-39.2s-17.585-39.2-39.2-39.2h-116.6c-21.615 0-39.2 17.585-39.2 39.2s17.585 39.2 39.2 39.2zm140.8-39.2c0 13.344-10.856 24.2-24.2 24.2h-50.8v-48.4h50.8c13.344 0 24.2 10.856 24.2 24.2zm-140.8-24.2h50.8v48.4h-50.8c-13.344 0-24.2-10.856-24.2-24.2s10.856-24.2 24.2-24.2z"/><path d="m302.7 108.4h116.6c21.615 0 39.2-17.585 39.2-39.2s-17.585-39.2-39.2-39.2h-116.6c-21.615 0-39.2 17.585-39.2 39.2s17.585 39.2 39.2 39.2zm140.8-39.2c0 13.344-10.856 24.2-24.2 24.2h-50.8v-48.4h50.8c13.344 0 24.2 10.856 24.2 24.2zm-140.8-24.2h50.8v48.4h-50.8c-13.344 0-24.2-10.856-24.2-24.2s10.856-24.2 24.2-24.2z"/><path d="m302.7 201.8h116.6c21.615 0 39.2-17.585 39.2-39.2 0-21.614-17.585-39.199-39.2-39.199h-116.6c-21.615 0-39.2 17.585-39.2 39.199 0 21.615 17.585 39.2 39.2 39.2zm140.8-39.2c0 13.344-10.856 24.2-24.2 24.2h-50.8v-48.4h50.8c13.344 0 24.2 10.856 24.2 24.2zm-140.8-24.2h50.8v48.4h-50.8c-13.344 0-24.2-10.856-24.2-24.2s10.856-24.2 24.2-24.2z"/><path d="m302.7 295.2h116.6c21.615 0 39.2-17.585 39.2-39.2s-17.585-39.2-39.2-39.2h-116.6c-21.615 0-39.2 17.585-39.2 39.2s17.585 39.2 39.2 39.2zm140.8-39.2c0 13.344-10.856 24.2-24.2 24.2h-50.8v-48.4h50.8c13.344 0 24.2 10.856 24.2 24.2zm-140.8-24.2h50.8v48.4h-50.8c-13.344 0-24.2-10.856-24.2-24.2s10.856-24.2 24.2-24.2z"/><path d="m302.7 388.6h116.6c21.615 0 39.2-17.585 39.2-39.199 0-21.615-17.585-39.2-39.2-39.2h-116.6c-21.615 0-39.2 17.585-39.2 39.2 0 21.614 17.585 39.199 39.2 39.199zm140.8-39.2c0 13.344-10.856 24.199-24.2 24.199h-50.8v-48.399h50.8c13.344 0 24.2 10.857 24.2 24.2zm-140.8-24.2h50.8v48.4h-50.8c-13.344 0-24.2-10.855-24.2-24.199s10.856-24.201 24.2-24.201z"/><path d="m302.7 482h116.6c21.615 0 39.2-17.585 39.2-39.2s-17.585-39.2-39.2-39.2h-116.6c-21.615 0-39.2 17.585-39.2 39.2s17.585 39.2 39.2 39.2zm140.8-39.2c0 13.344-10.856 24.2-24.2 24.2h-50.8v-48.4h50.8c13.344 0 24.2 10.856 24.2 24.2zm-140.8-24.2h50.8v48.4h-50.8c-13.344 0-24.2-10.856-24.2-24.2s10.856-24.2 24.2-24.2z"/></g></svg>