<svg id="Capa_1" enable-background="new 0 0 511.149 511.149" height="512" viewBox="0 0 511.149 511.149" width="512" xmlns="http://www.w3.org/2000/svg"><g><path d="m329.057 24.17-34.077 34.077-13.167 29.202-152.528 186.423-11.854 55.48-46.903 46.903 14.956 14.956-7.108 7.108c-3.228 3.229-7.521 5.006-12.087 5.006h-19.194c-25.968.001-47.095 21.128-47.095 47.095v36.559h75.698c20.843 0 40.438-8.117 55.177-22.855l13.76-13.76 14.43 14.43 46.903-46.904 55.48-11.854 186.424-152.528 29.202-13.167 34.075-34.076zm-33.268 93.574 121.789 121.788-161.808 132.388-92.369-92.369zm-186.127 325.166c-9.072 9.072-21.135 14.069-33.964 14.069h-45.698v-6.559c0-9.426 7.669-17.094 17.095-17.094h19.194c12.58 0 24.407-4.899 33.301-13.794l7.107-7.107 16.725 16.725zm81.364-52.505-31.962 31.961-46.111-46.111 31.962-31.961 7.184-33.619 72.546 72.546zm268.714-175.158-16.557 7.466-130.575-130.575 7.466-16.558 8.982-8.983 139.667 139.667z"/></g></svg>